<?xml version="1.0" ?><svg data-name="Your Icons" id="Your_Icons" viewBox="0 0 96 96" xmlns="http://www.w3.org/2000/svg"><defs><style>.cls-1{fill:#231f20;}</style></defs><title/><path class="cls-1" d="M40.86,24.23c-1.47,0-2.61.87-2.61,2a.5.5,0,0,0,.5.5.5.5,0,0,0,.5-.5c0-.52.75-1,1.61-1s1.61.45,1.61,1a.5.5,0,0,0,.5.5.5.5,0,0,0,.5-.5C43.47,25.1,42.32,24.23,40.86,24.23Z"/><path class="cls-1" d="M53,26.7a.5.5,0,0,0,.5-.5c0-.52.76-1,1.62-1s1.6.45,1.6,1a.5.5,0,0,0,.5.5.5.5,0,0,0,.5-.5c0-1.1-1.14-2-2.6-2s-2.62.87-2.62,2A.5.5,0,0,0,53,26.7Z"/><path class="cls-1" d="M71.73,62.91a.5.5,0,0,0,0-1H70v-1.5h1.75a.5.5,0,0,0,0-1H70V51.16a.5.5,0,0,0-1,0v8.25H67V56.93A10.44,10.44,0,0,0,56.55,46.5H51.8V43l.73-.25a11.72,11.72,0,0,0,1.83-.85l.41-.24c.17-.1.33-.21.49-.32s.35-.25.52-.38.48-.37.7-.56.44-.41.65-.62a7.45,7.45,0,0,0,.6-.66,1.68,1.68,0,0,0,.18-.21,8,8,0,0,0,.52-.67c.18-.25.36-.51.52-.78a12.31,12.31,0,0,0,.61-1.13,6.21,6.21,0,0,0,.26-.59,1.48,1.48,0,0,0,.12-.29,9.44,9.44,0,0,0,.32-.89,12.65,12.65,0,0,0,.58-3.83V29.13h1a2.94,2.94,0,1,0,0-5.87h-1V14.45a5.68,5.68,0,0,0-5.68-5.67H40.84a5.67,5.67,0,0,0-5.67,5.67v8.81h-1a2.94,2.94,0,1,0,0,5.87h1v1.64a12.79,12.79,0,0,0,.58,3.81,9.44,9.44,0,0,0,.32.89,6.41,6.41,0,0,0,.32.76,4.71,4.71,0,0,0,.22.45,12.36,12.36,0,0,0,.87,1.45c.13.19.27.38.42.56a.3.3,0,0,0,.07.1c.12.16.25.31.38.46a13,13,0,0,0,1.35,1.33c.2.17.41.34.62.49a9.33,9.33,0,0,0,1.06.71c.22.14.44.26.67.38a11.87,11.87,0,0,0,1.41.63l.73.25h0V46.5H39.45A10.44,10.44,0,0,0,29,56.93v2.48H27V51.16a.5.5,0,0,0-.5-.5.5.5,0,0,0-.5.5v8.25H24.28a.5.5,0,0,0,0,1H26v1.5H24.28a.5.5,0,0,0,0,1H26V76.53H24.27a.5.5,0,0,0-.5.5v3.2a.5.5,0,0,0,.5.5H71.73a.5.5,0,0,0,.5-.5V77a.5.5,0,0,0-.5-.5H70V62.91ZM60.84,24.26h1a1.94,1.94,0,1,1,0,3.87h-1ZM35.17,28.13h-1a1.94,1.94,0,1,1,0-3.87h1ZM67,60.41h2v1.5H67Zm0,2.5h2V76.53H67ZM36.17,14.45a4.68,4.68,0,0,1,4.67-4.67H55.16a4.68,4.68,0,0,1,4.68,4.67v1.68L48,20.5,36.17,16.14Zm.4,19.33a11.26,11.26,0,0,1-.4-3V17.21L47.83,21.5l.18,0a.51.51,0,0,0,.17,0l11.66-4.3V30.77a11.69,11.69,0,0,1-.39,3l-8.52-3.14v-2a2.93,2.93,0,1,0-5.86,0v2Zm13.36-5.15v1.65l-1.75-.65a.53.53,0,0,0-.35,0l-1.76.65V28.63a1.93,1.93,0,1,1,3.86,0ZM42.69,41.36A7.62,7.62,0,0,1,42,41a10,10,0,0,1-1.72-1.24.31.31,0,0,1-.11-.09,4.66,4.66,0,0,1-.51-.48,1.42,1.42,0,0,1-.21-.22,10.32,10.32,0,0,1-1.7-2.29,3.12,3.12,0,0,1-.2-.35,7.41,7.41,0,0,1-.4-.86A4.89,4.89,0,0,1,37,35a.08.08,0,0,1,0,0l-.06-.18L48,30.63l11.14,4.12a1.34,1.34,0,0,1-.09.26,10.48,10.48,0,0,1-.87,1.78.47.47,0,0,1-.09.17c-.16.27-.34.53-.53.79a2.43,2.43,0,0,1-.24.32,3.47,3.47,0,0,1-.3.37,6.62,6.62,0,0,1-.51.56l-.2.21a7,7,0,0,1-.57.52,6.3,6.3,0,0,1-.6.48,4.7,4.7,0,0,1-.53.38A6.17,6.17,0,0,1,54,41l-.59.32a11.05,11.05,0,0,1-1.16.52c-.21.08-.42.16-.64.22a8.84,8.84,0,0,1-.88.25,12.1,12.1,0,0,1-1.82.28c-.31,0-.62,0-.94,0s-.63,0-.94,0h0a8.62,8.62,0,0,1-.87-.11,5.1,5.1,0,0,1-.68-.13,2.78,2.78,0,0,1-.5-.11,1.29,1.29,0,0,1-.26-.08,1.73,1.73,0,0,1-.37-.11A9.84,9.84,0,0,1,42.69,41.36Zm7.25,2.1a2.63,2.63,0,0,0,.39-.06l.47-.1v3.2H45.2V43.3l.69.13h0l.66.09c.22,0,.45,0,.67.06l.75,0,.72,0c.24,0,.47,0,.7-.06ZM30,56.93a9.44,9.44,0,0,1,9.43-9.43h17.1A9.44,9.44,0,0,1,66,56.93v2.48H61.73V54.63a.34.34,0,0,0,0-.1c-.07-1.19-1.54-2.11-3.41-2.11s-3.34.92-3.41,2.11a.34.34,0,0,0,0,.1v4.78H51.47V54.63a.34.34,0,0,0,0-.1c-.07-1.19-1.54-2.11-3.41-2.11s-3.34.92-3.41,2.11a.34.34,0,0,0,0,.1v4.78H41.21V54.63a.34.34,0,0,0,0-.1c-.07-1.19-1.54-2.11-3.41-2.11s-3.34.92-3.41,2.11a.34.34,0,0,0,0,.1v4.78H30Zm31.71,4.88v-1.4H66v1.5H61.73ZM58.31,63c-1.38,0-2.42-.64-2.42-1.21v-.92a5,5,0,0,0,4.84,0v.92C60.73,62.38,59.7,63,58.31,63Zm2.42.37v7.24a2.42,2.42,0,0,1-4.84,0V63.39a5,5,0,0,0,4.84,0Zm-2.42-2.87c-1.39,0-2.42-.64-2.42-1.21v-3.1a5,5,0,0,0,4.84,0v3.1C60.73,59.88,59.69,60.52,58.31,60.52Zm0-4.68c-1.39,0-2.42-.63-2.42-1.21s1-1.21,2.42-1.21,2.42.64,2.42,1.21S59.69,55.84,58.31,55.84Zm-6.84,6v-1.4h3.42v1.5H51.47ZM48.05,63c-1.38,0-2.42-.64-2.42-1.21v-.92a5,5,0,0,0,4.84,0v.92C50.47,62.38,49.44,63,48.05,63Zm2.42.37v7.24a2.42,2.42,0,0,1-4.84,0V63.39a5,5,0,0,0,4.84,0Zm-2.42-2.87c-1.38,0-2.42-.64-2.42-1.21v-3.1a5,5,0,0,0,4.84,0v3.1C50.47,59.88,49.43,60.52,48.05,60.52Zm0-4.68c-1.39,0-2.42-.63-2.42-1.21s1-1.21,2.42-1.21,2.42.64,2.42,1.21S49.43,55.84,48.05,55.84Zm-6.84,6v-1.4h3.42v1.5H41.21ZM37.79,63c-1.39,0-2.42-.64-2.42-1.21v-.92a5,5,0,0,0,4.84,0v.92C40.21,62.38,39.17,63,37.79,63Zm2.42.37v7.24a2.42,2.42,0,0,1-4.84,0V63.39a5,5,0,0,0,4.84,0Zm-2.42-2.87c-1.39,0-2.42-.64-2.42-1.21v-3.1a5,5,0,0,0,4.84,0v3.1C40.21,59.88,39.17,60.52,37.79,60.52Zm0-4.68c-1.39,0-2.42-.63-2.42-1.21s1-1.21,2.42-1.21,2.42.64,2.42,1.21S39.17,55.84,37.79,55.84ZM30,60.41h4.35v1.5H30Zm0,2.5h4.35v7.72a3.42,3.42,0,0,0,6.84,0V62.91h3.42v7.72a3.42,3.42,0,0,0,6.84,0V62.91h3.42v7.72a3.42,3.42,0,1,0,6.84,0V62.91H66v13.6H30Zm-3-2.5h2v1.5H27Zm0,2.5h2V76.53H27Zm44.2,14.62v2.2H24.77v-2.2Z"/><path class="cls-1" d="M49.54,18V16.69H50.8a.5.5,0,0,0,.5-.5V14.12a.5.5,0,0,0-.5-.5H49.54V12.36a.5.5,0,0,0-.5-.5H47a.51.51,0,0,0-.5.5v1.26H45.21a.51.51,0,0,0-.5.5v2.07a.5.5,0,0,0,.5.5h1.26V18a.5.5,0,0,0,.5.5H49A.5.5,0,0,0,49.54,18Zm-1-1.76v1.26H47.47V16.19a.5.5,0,0,0-.5-.5H45.71V14.62H47a.5.5,0,0,0,.5-.5V12.86h1.07v1.26a.5.5,0,0,0,.5.5H50.3v1.07H49A.5.5,0,0,0,48.54,16.19Z"/></svg>