<?xml version="1.0" ?><svg data-name="Your Icons" id="Your_Icons" viewBox="0 0 96 96" xmlns="http://www.w3.org/2000/svg"><defs><style>.cls-1{fill:none;stroke:#231f20;stroke-linecap:round;stroke-miterlimit:10;}</style></defs><title/><path class="cls-1" d="M17.57,71.77c.18-5.62,1.23-11.93,4.49-16.64a9,9,0,0,1,5.1-3.79A15.09,15.09,0,0,1,33,51.6c4.5.72,9.55.48,13.6-1.79,3.49-2,6.16-5.65,6.14-9.66a12.44,12.44,0,0,0-2.7-7.24C47.17,29,44,27.13,42.62,22.22c-1.09-4-.93-8.18-.93-12.3"/><path class="cls-1" d="M48.08,9.92c-.08,3.84.15,7.76,1.73,11.31a4.29,4.29,0,0,0,1.86,2.29c1.57.73,3.33-.39,4.81-1.3a13.82,13.82,0,0,1,9.05-2.33,12.62,12.62,0,0,1,8,5.17C78.92,32.26,79.2,42,76.21,50.2c-2.5,6.9-7.75,14.31-15.06,16.6-8.54,2.69-18.08-1.11-24.93-6.19-1.58-1.17-3.28-2.5-5.24-2.42a5.46,5.46,0,0,0-4.52,3.67c-1.16,3-1,6.76-1.46,9.91"/><circle class="cls-1" cx="64.42" cy="54.8" r="2.63"/><circle class="cls-1" cx="49.83" cy="59.66" r="2.63"/><circle class="cls-1" cx="61.18" cy="45.07" r="2.63"/><circle class="cls-1" cx="57.57" cy="60.34" r="1.93"/><circle class="cls-1" cx="41.67" cy="57.4" r="1.93"/><circle class="cls-1" cx="55.3" cy="51.35" r="1.93"/><circle class="cls-1" cx="67.3" cy="39.35" r="1.93"/><circle class="cls-1" cx="69.89" cy="46.49" r="1.93"/></svg>