<?xml version="1.0" ?><svg data-name="Your Icons" id="Your_Icons" viewBox="0 0 96 96" xmlns="http://www.w3.org/2000/svg"><defs><style>.cls-1{fill:#353334;}</style></defs><title/><path class="cls-1" d="M77,55.2,75.77,54c-3.43-3.33-7.31-7.11-7.41-12.1a32.31,32.31,0,0,1,.63-6,41,41,0,0,0,.63-5,25.2,25.2,0,0,0-2.23-11.46c-3-6.57-8.74-10.15-17-10.64C36.08,8,19.79,14.1,15.52,29.73a36.22,36.22,0,0,0,4.05,27.68,38.37,38.37,0,0,0,3.87,5.16c.75.89,1.53,1.81,2.24,2.75a41.18,41.18,0,0,1,4.67,7.37,21.55,21.55,0,0,0,3.26,5.5,13,13,0,0,0,1.61,1.54c3.62,2.91,8.41,3.93,12.62,4.66a57.16,57.16,0,0,0,9.61,1,20.25,20.25,0,0,0,7.42-1.2A5.13,5.13,0,0,0,68,79.36a17.5,17.5,0,0,1,2.06-8.24l.39-.74-3.39-1.71a.14.14,0,0,1-.08-.16.15.15,0,0,1,.12-.14l3-.72a1.76,1.76,0,0,0,1.22-1.06A1.72,1.72,0,0,0,71.21,65a1.81,1.81,0,0,1-.33-1.62c.27-.72,1.26-1.34,2.86-1.79a5.77,5.77,0,0,0,3.47-2.7C78.21,57.07,77.62,55.88,77,55.2Zm-.62,3.2a4.74,4.74,0,0,1-2.86,2.23C71.53,61.18,70.34,62,70,63a2.77,2.77,0,0,0,.41,2.51.74.74,0,0,1,.07.69.78.78,0,0,1-.54.46l-3,.72a1.16,1.16,0,0,0-.25,2.16l2.48,1.25A18.75,18.75,0,0,0,67,79.45a4.1,4.1,0,0,1-2.52,3.81c-4.66,1.84-11,1.11-16.5.15-4.08-.71-8.73-1.7-12.16-4.46a11,11,0,0,1-1.48-1.42,20.61,20.61,0,0,1-3.12-5.26,42.28,42.28,0,0,0-4.77-7.55c-.73-1-1.51-1.89-2.27-2.79a38.2,38.2,0,0,1-3.78-5A35.23,35.23,0,0,1,16.49,30C20.6,14.91,36.43,9,50.29,9.82c7.9.47,13.35,3.85,16.19,10.06a24,24,0,0,1,2.14,11,39.76,39.76,0,0,1-.62,4.9A33.71,33.71,0,0,0,67.36,42c.11,5.4,4.15,9.33,7.71,12.8l1.17,1.14C76.48,56.14,77.19,56.86,76.33,58.4Z"/><path class="cls-1" d="M61,38.21l-.7-3.84a2.9,2.9,0,0,0-2.77-5.1l-3.06-3.16a2.91,2.91,0,0,0-5-3L46,21.92a1.93,1.93,0,0,0,0-.24,2.59,2.59,0,1,0-5.17,0,1.48,1.48,0,0,0,0,.21l-3.26,1a3.46,3.46,0,0,0-6.45,1.75,3.1,3.1,0,0,0,.13.92l-2,.87a2.59,2.59,0,1,0-3.13,4.06l-.64,2.87a4,4,0,1,0-.17,8.07,3.93,3.93,0,0,0,2.19-.65l.05,0,2.26,1.61a3.31,3.31,0,0,0-.14,1,3.46,3.46,0,0,0,6.87.6l3.06-1.08A4,4,0,0,0,46,44.71l1.81,1.47a2.59,2.59,0,0,0,1.41,4.2l-.55,3.72h-.1a2.6,2.6,0,1,0,1.08.24l.57-3.94a2.59,2.59,0,0,0,2-3.55l7.2-4a2.55,2.55,0,0,0,1.56.53A2.59,2.59,0,0,0,61,38.21Zm-3.26-7.9h0l0,0h0a0,0,0,0,0,0,0,2,2,0,0,1,1.06-.31,1.91,1.91,0,0,1,.74,3.66,1.85,1.85,0,0,1-.74.15,1.9,1.9,0,0,1-1.13-3.44ZM50.13,24s0,0,0,0a.06.06,0,0,0,0,0,1.91,1.91,0,1,1,3.29,1.89h0a.13.13,0,0,0,0,.06,1.91,1.91,0,0,1-1.47.69,1.82,1.82,0,0,1-1.22-.45l0,0h0A1.85,1.85,0,0,1,50,24.65,2,2,0,0,1,50.13,24Zm.26,3.15a2.82,2.82,0,0,0,1.52.44,2.94,2.94,0,0,0,1.86-.67l2.91,3a2.92,2.92,0,0,0-.77,2,2.88,2.88,0,0,0,.53,1.66l-2.07,2.16a2.6,2.6,0,0,0-1.65-.59,2.64,2.64,0,0,0-1.63.57l-2.4-2.78a3.4,3.4,0,0,0,.88-2.29,3.46,3.46,0,0,0-.6-1.95Zm3.92,10.56a1.66,1.66,0,0,1,0,.32v0a.06.06,0,0,0,0,0,1.6,1.6,0,0,1-1.54,1.21,1.63,1.63,0,0,1-1.33-.71.53.53,0,0,0-.08-.15,1.52,1.52,0,0,1-.18-.73,1.64,1.64,0,0,1,.27-.9l.07-.08a1.58,1.58,0,0,1,1.25-.61,1.56,1.56,0,0,1,1.22.58.39.39,0,0,0,.08.1l0,0A1.59,1.59,0,0,1,54.31,37.67Zm-4.07.73-3.31,1.1a3.66,3.66,0,0,0-.62-.8,4,4,0,0,0-1.23-.84L45.86,34h.24a3.42,3.42,0,0,0,1.82-.52l2.52,2.91h0a2.58,2.58,0,0,0-.31,1.23A2.53,2.53,0,0,0,50.24,38.4Zm-2.57-5.94-.05.06,0,0a2.5,2.5,0,0,1-1.5.5,2.73,2.73,0,0,1-.5,0h0A2.48,2.48,0,0,1,44,31.79a.46.46,0,0,0-.07-.16,2.46,2.46,0,0,1,1.43-3.39h.07l0,0h0a2.47,2.47,0,0,1,2.46.69L48,29h0a2.48,2.48,0,0,1,.59,1.6,2.44,2.44,0,0,1-.85,1.85h0Zm-1.92-9.58,3.31,1.2a2.62,2.62,0,0,0-.06.57,2.89,2.89,0,0,0,.63,1.8l-1.35,1.44a3.38,3.38,0,0,0-2.74-.73l-1.08-3.09A2.67,2.67,0,0,0,45.75,22.88Zm-2.29-2.79a1.59,1.59,0,0,1,1.53,2,1.57,1.57,0,0,1-1.18,1.16h0a.15.15,0,0,0-.09,0,.09.09,0,0,0-.07,0h-.18a1.59,1.59,0,0,1-1.53-1.16v0h0a1.75,1.75,0,0,1-.05-.4A1.59,1.59,0,0,1,43.46,20.09ZM38.1,24.65a3.18,3.18,0,0,0-.1-.82l3.15-1a2.61,2.61,0,0,0,2.31,1.41l1.13,3.19a3.48,3.48,0,0,0-2,3.12,3.31,3.31,0,0,0,.14,1l-4.41.93A2.58,2.58,0,0,0,36.43,31l-.64-3.07A3.46,3.46,0,0,0,38.1,24.65Zm-.49,8.89A1.59,1.59,0,0,1,36,35.13a1.61,1.61,0,0,1-1.47-1,.32.32,0,0,0,0-.09,1.51,1.51,0,0,1-.09-.53,1.59,1.59,0,0,1,3.11-.46.13.13,0,0,0,0,.06s0,.06,0,.08A1.66,1.66,0,0,1,37.61,33.54Zm-3-11.36a2.47,2.47,0,0,1,.5,4.88h0a2.32,2.32,0,0,1-.46,0,2.47,2.47,0,1,1,0-4.93Zm-4.59,6.07a2.77,2.77,0,0,0-.18-1l1.83-.8a3.5,3.5,0,0,0,2.94,1.62h.17L35.42,31a2.59,2.59,0,0,0-2,2.52,2.73,2.73,0,0,0,0,.41L29,35.74a3.91,3.91,0,0,0-.82-1.19,4,4,0,0,0-1.7-1l.62-2.71.32,0A2.6,2.6,0,0,0,30.05,28.25Zm-4.18,0a1.59,1.59,0,0,1,2.9-.9l0,0a1.62,1.62,0,0,1,.26.87,1.6,1.6,0,0,1-1.59,1.59,1.45,1.45,0,0,1-.59-.12A1.58,1.58,0,0,1,25.87,28.25Zm1.65,11.3a3.11,3.11,0,0,1-4.3,0,3,3,0,0,1,2.15-5.18,3.15,3.15,0,0,1,.44,0,3,3,0,0,1,1.71.85,3.11,3.11,0,0,1,.75,1.24l0,.09a3.18,3.18,0,0,1,.11.82A3,3,0,0,1,27.52,39.55Zm.82.58a4,4,0,0,0,1-3.43l4.47-1.8h0A2.54,2.54,0,0,0,35.33,36L33.75,40a2.5,2.5,0,0,0-.55,0,3.44,3.44,0,0,0-2.91,1.59Zm7.31,3.48v0a2.47,2.47,0,0,1-4.92-.25,2.39,2.39,0,0,1,.2-1s0,0,0,0a2.46,2.46,0,0,1,2.26-1.48,2.32,2.32,0,0,1,.65.09h.08a2.46,2.46,0,0,1,1.73,2.35A1.62,1.62,0,0,1,35.65,43.61Zm3.79-1.69-2.82,1a3.41,3.41,0,0,0-1.91-2.64l1.66-4.17a2.6,2.6,0,0,0,2.24-2.57v-.12l4.59-1a3.42,3.42,0,0,0,1.68,1.34l-.76,3.77a4,4,0,0,0-4.68,4.34ZM45.6,43.7a3,3,0,1,1-2.14-5.18,3.13,3.13,0,0,1,.86.12l.09,0a3,3,0,0,1,1.19.73,3.14,3.14,0,0,1,.61.86,3.07,3.07,0,0,1-.61,3.44Zm4.53,13a1.59,1.59,0,1,1-1.59-1.59,1.66,1.66,0,0,1,.32,0l.13,0A1.58,1.58,0,0,1,50.13,56.69Zm-.36-7.25h0a1.59,1.59,0,0,1-.92-2.88l0,0a1.55,1.55,0,0,1,.88-.27,1.59,1.59,0,0,1,0,3.18ZM51.57,46a2.6,2.6,0,0,0-1.82-.75,2.56,2.56,0,0,0-1.17.28L46.67,44a4.07,4.07,0,0,0,.66-3.57l3.38-1.12A2.59,2.59,0,0,0,55,38.82l3.39,1.23a2.67,2.67,0,0,0-.11.75,2.61,2.61,0,0,0,.35,1.3Zm3.73-8.16a1.09,1.09,0,0,0,0-.18,2.62,2.62,0,0,0-.3-1.22l2.14-2.23a2.93,2.93,0,0,0,1.67.53,1.91,1.91,0,0,0,.48,0L60,38.39a2.58,2.58,0,0,0-1.07.77Zm5.6,4.54a1.6,1.6,0,0,1-1.11-.46.08.08,0,0,0,0,0,1.62,1.62,0,0,1-.43-1.09,1.52,1.52,0,0,1,.18-.73,1.58,1.58,0,0,1,3,.73A1.59,1.59,0,0,1,60.9,42.39Z"/></svg>