<?xml version="1.0" ?><svg data-name="Your Icons" id="Your_Icons" viewBox="0 0 96 96" xmlns="http://www.w3.org/2000/svg"><defs><style>.cls-1{fill:#231f20;}</style></defs><title/><path class="cls-1" d="M66,12.77H54.11V16H41.89V12.77H30V36.05a17.85,17.85,0,0,0,4.56,12A17.8,17.8,0,0,0,30,60V83.23H41.89V80.32H54.11v2.91H66V60a17.85,17.85,0,0,0-4.56-12A17.8,17.8,0,0,0,66,36.05ZM41.89,17H54.11v3.67H41.89Zm0,4.67H54.11v3.66H41.89Zm0,4.66H54.11V30H41.89Zm0,4.67H54.11v3.67H41.89Zm0,4.67H54.11v.21a6.11,6.11,0,1,1-12.22,0ZM31,36.05V13.77h9.86V35.88a7.1,7.1,0,0,0,2.07,5,7.36,7.36,0,0,0,1.9,1.36l-.46.09a17.65,17.65,0,0,0-2.69.78l-.78.31c-.33.13-.64.28-1,.44s-.5.26-.74.4-.49.27-.73.42-.56.37-.84.57-.39.27-.58.42a17.09,17.09,0,0,0-1.31,1.11c-.14.13-.28.26-.41.4l-.08.07A16.89,16.89,0,0,1,31,36.05ZM54.11,79.32H41.89V75.66H54.11Zm0-4.66H41.89V71H54.11Zm0-4.67H41.89V66.32H54.11Zm0-4.67H41.89V61.66H54.11Zm0-4.66H41.89v-.54a6.11,6.11,0,1,1,12.22,0ZM65,60V82.23H55.11V60.12a7.12,7.12,0,0,0-4-6.38l.4-.08c.28,0,.57-.12.85-.19a13.79,13.79,0,0,0,1.39-.41l.54-.19.23-.08.5-.21c.42-.18.83-.37,1.23-.58l.6-.33c.2-.11.39-.23.58-.35L58,51c.19-.12.37-.25.56-.39s.37-.27.55-.42.35-.28.53-.44c.35-.3.69-.61,1-.94l0,0A16.93,16.93,0,0,1,65,60Zm0-23.9a16.8,16.8,0,0,1-4.25,11.2h0l-.36.43c-.11.13-.24.26-.36.38a16.84,16.84,0,0,1-12,5h0a7.1,7.1,0,0,0-7.1,7.11V82.23H31V60a16.88,16.88,0,0,1,4.24-11.21l.36-.39A17,17,0,0,1,48,43h0a7.12,7.12,0,0,0,7.1-7.11V13.77H65Z"/></svg>