<?xml version="1.0" ?><svg data-name="Your Icons" id="Your_Icons" viewBox="0 0 96 96" xmlns="http://www.w3.org/2000/svg"><defs><style>.cls-1{fill:#231f20;}</style></defs><title/><path class="cls-1" d="M86.33,47.68H59.54l-3-6.42L47.9,54.86,38.72,37.74l-6.19,9.94H9.67a.5.5,0,0,0,0,1H33.08l5.58-9,9.17,17.11,8.59-13.51,2.49,5.35H86.33a.5.5,0,0,0,0-1Z"/><path class="cls-1" d="M17.6,46.58a.5.5,0,0,0,.33-.62,16.92,16.92,0,0,1,1.23-13.19,18.9,18.9,0,0,1,7.29-7.34,16.18,16.18,0,0,1,9.11-2.27c4.27.31,8.67,2.78,12.06,6.79l.38.45.38-.45c3.39-4,7.79-6.48,12.06-6.79a16.18,16.18,0,0,1,9.11,2.27,18.9,18.9,0,0,1,7.29,7.34A16.92,16.92,0,0,1,78.07,46a.5.5,0,0,0,.33.62.39.39,0,0,0,.15,0,.5.5,0,0,0,.48-.35,17.91,17.91,0,0,0-1.31-14,19.92,19.92,0,0,0-7.67-7.73,17.19,17.19,0,0,0-9.68-2.39c-4.38.31-8.86,2.74-12.37,6.7-3.51-4-8-6.39-12.37-6.7A17.21,17.21,0,0,0,26,24.56a19.92,19.92,0,0,0-7.67,7.73,17.91,17.91,0,0,0-1.31,14A.51.51,0,0,0,17.6,46.58Z"/><path class="cls-1" d="M76.62,50.4a.5.5,0,0,0-.69.14,19.18,19.18,0,0,1-2.35,3C64,63.49,50.24,74.78,48,76.61c-2.24-1.83-16-13.12-25.58-23.1a19.18,19.18,0,0,1-2.35-3,.5.5,0,0,0-.84.54A19,19,0,0,0,21.7,54.2c10.51,10.89,25.83,23.32,26,23.45l.31.25.31-.25c.16-.13,15.48-12.56,26-23.45a19.4,19.4,0,0,0,2.47-3.11A.5.5,0,0,0,76.62,50.4Z"/></svg>